<svg xmlns="http://www.w3.org/2000/svg" xmlns:xlink="http://www.w3.org/1999/xlink" xmlns:xodm="http://www.corel.com/coreldraw/odm/2003" xml:space="preserve" version="1.1" style="shape-rendering:geometricPrecision;text-rendering:geometricPrecision;image-rendering:optimizeQuality;" viewBox="0 0 39370.08 49212.600000000006" x="0px" y="0px" fill-rule="evenodd" clip-rule="evenodd"><defs><style type="text/css">
   
    .fil0 {fill:white;fill-rule:nonzero}
   
  </style></defs><g><path class="fil0" d="M20199.52 7712.8l-15944.86 1367.27c-1112.83,95.44 -1570.39,558.61 -1561.92,1763.31l-55.97 14723.97c-1.02,269.84 -32.15,215.19 200.77,116.74 784.96,-331.72 1671.89,-321.06 2451.55,27.07 211.67,94.52 413.38,212.92 601.16,353.5 254.59,190.6 200.2,219.19 201.61,-151.46l50.45 -13272.19c-10.52,-1534.59 690.76,-2077.57 2037.43,-2177.24l27192.58 -2012.81c1003.44,-74.28 1680.76,61.34 1680.93,1257.02l0.68 5675.42c1127.69,-347.81 1900.76,-1418.98 1900.76,-2634.83 0,-791.52 -324.19,-1534.55 -898.41,-2059.14 -111.74,172.35 -251.23,324.46 -411.47,449.84 -206.11,161.22 -444.16,-162.31 -238.05,-323.54 214.17,-167.59 381.01,-396.28 471.38,-657.67 156.97,-453.93 73.01,-967.69 -205.36,-1359.46 -169.37,-238.36 -132.52,-196.78 -262.52,-11.76 -152.5,216.99 -472.47,-22.09 -319.98,-239.07 214.15,-304.76 325.72,-662.78 325.72,-1038.98 0,-979.07 -769.71,-1772.71 -1719.26,-1772.71 -391.87,0 -752.42,134.21 -1040.63,360.28 -295.38,231.69 -515.91,560.06 -617.48,939.62 -69.12,257.85 -449.39,149.5 -380.26,-108.38 51.97,-194.19 129.41,-377.54 228.38,-546.01 112.58,-191.63 140.98,-136.61 -70.72,-283.06 -656.25,-453.99 -1477.47,-664.08 -2261.38,-541.74 -729.93,113.93 -1361.39,508.83 -1797.89,1141.72 -150.28,217.76 -471.79,-18.12 -321.52,-235.88 274,-397.25 624.26,-725.55 1040.93,-958.58 284.24,-158.97 330.85,-89.45 13.62,-325.83 -902.72,-672.67 -2080.47,-971.52 -3177.83,-773.74 -1199.01,216.1 -2112.76,984.22 -2508.16,2171.6 -84.38,253.68 -458.46,121.39 -374.08,-132.29 113.19,-339.88 262.61,-644.24 441.6,-913.8 165.45,-249.17 209.7,-201.2 -124.15,-291.17 -1594.57,-429.72 -3042.43,240.89 -3668.08,1849.17 -113.68,292.22 -201.35,616.84 -258.92,973.59 -42.69,264.15 -432.23,197.22 -389.53,-66.94 57.89,-358.7 131.13,-312.91 -231.13,-281.85zm1122.45 26273.45c187.89,-21.15 382.08,-83.02 533.87,-202.31 171.76,-134.96 136.37,-200.1 70.74,-410.92 -133.07,-427.39 -507.59,-641.92 -913.2,-576.91 -209.55,33.56 -162.46,23.69 -88.87,209.45 98.81,249.41 162.54,512.97 197.75,779.68 29.5,223.6 -28.23,226.65 199.71,201zm-503 -1563.44c643.37,-171.49 1275.31,158.08 1483.23,825.9 52.27,167.89 123.93,476.11 8.83,634.63 -240.84,331.82 -631.51,487.37 -1022.13,514.93 -335.28,23.64 -181.75,-36.79 -419.3,214.07 -116.92,123.48 -246.27,231.83 -385.31,325.76 -1048.97,708.66 -2797.65,645.69 -3800,-127.78 -390.7,-301.47 -492.14,-443.91 -484.42,-913.54 11.67,-710.63 284.56,-1283.31 697.34,-1694.14 487.43,-485.13 1167.65,-739.83 1841.66,-728.07 663.63,11.59 1290.51,278.01 1737.27,787.76 200.2,228.46 125.69,217.11 342.83,160.49zm-939.41 505.21c66.5,114.64 -102.76,219.03 -169.26,104.4 -173.56,-298.42 -473.89,-462.25 -808.66,-468.1 -129.6,-2.09 -126.54,-205.3 3.09,-203.21 404.3,7.06 765.48,206.94 974.83,566.91zm-2958.77 1557.15c870.43,671.66 2436.75,726.84 3347.09,111.83 262.59,-177.4 504.98,-369.17 471.82,-683.86 -40.92,-372.2 -141,-737.8 -328.74,-1060.59 -360.21,-619.33 -983.47,-959.44 -1678.28,-971.57 -569.85,-9.96 -1149.7,204.67 -1561.89,614.91 -341.34,339.73 -567.04,815.2 -576.76,1407.25 -5.21,316.8 72.67,385.97 326.75,582.03zm-2863.88 -5342.56c52.86,122.11 -127.22,205 -180.08,82.87 -98.81,-226.97 -252.95,-424.21 -449.2,-569.28 -105.73,-78.09 9.43,-243.85 115.16,-165.76 223.97,165.55 401.39,393.19 514.13,652.17zm-3150.72 -291.37c43.21,126.32 -143.06,194.04 -186.26,67.74 -264.64,-772.16 -907.29,-1282.39 -1695.4,-1365.64 -129.11,-13.62 -109.02,-216.04 20.09,-202.42 863.48,91.2 1571.68,654.49 1861.57,1500.32zm19272.78 -4817.67c-92.01,94.87 -231.9,-49.37 -139.89,-144.24l3026.27 -3120.35c92.01,-94.87 231.9,49.37 139.89,144.24l-3026.27 3120.35zm1701.43 -300.86c-92.01,94.87 -231.9,-49.37 -139.89,-144.24l1180.45 -1217.15c92.01,-94.87 231.9,49.37 139.89,144.24l-1180.45 1217.15zm-6436.03 5096.33c-94.04,-92.24 41.99,-239.67 136.03,-147.42 163.74,160.75 297.1,404.31 349.71,630.83 29.99,129.98 -161.69,177 -191.68,47.02 -43.25,-186.2 -159.48,-398.3 -294.06,-530.43zm2561.98 1351.21c-315.08,133.36 -676.14,164.68 -1021.96,127.8 -365.83,-39 -221.86,-115.33 -511.54,93.84 -1022.39,738.3 -2905.39,714.27 -3961.59,63.57 -526.93,-324.62 -576.99,-498.95 -498.84,-1114.08 46.57,-366.53 160.57,-346.75 -212.76,-284.5l-6554 1092.83c-350.18,58.39 -231.02,-12.46 -363.65,262.31 -491.37,1017.86 -1611.23,1559.72 -2682.04,1654.43 -368.67,32.6 -244.07,-27.53 -538.83,202.94 -865.65,676.87 -1872.07,813.37 -2915.75,751.22 -440.75,-26.24 -242.53,-104.72 -568.01,170.38 -148.46,125.48 -309.04,232.81 -478.81,323.03 -1321.3,702.17 -3380.21,405.5 -4469.5,-633.72 -93.83,-89.52 -179.09,-183.75 -254.51,-282.26 -197.75,-258.28 -66.52,-212.24 -390.94,-240.84 -899.83,-79.35 -2052.25,-520.87 -2474.57,-1407.68 -103.34,-217.02 -100.44,-283.65 -76.84,-526.2 54.18,-556.76 280.6,-1005.44 607.52,-1336.91 240.32,-225.47 223.31,-237.74 238.3,-520.68 51,-962.58 455.02,-1818.66 1177.21,-2415.16 223.11,-184.27 185.46,-94.67 186.63,-401.59l56.69 -14914.83c-9.61,-1402.33 592.37,-2056.35 1914.31,-2169.72l16077.56 -1378.65c395.91,-33.95 276.69,15.13 422.31,-359.21 635.63,-1633.92 2066.65,-2465.28 3750.26,-2176.43 179.03,30.71 359.81,74.17 541.41,130.43 372.62,115.44 226.69,152.72 520.55,-95.15 494.73,-417.32 1088.73,-679 1718.97,-792.59 1296.28,-233.63 2683.23,160.4 3697.65,1021.18 305.06,258.87 155.15,193.96 544.97,131.86 882.31,-140.52 1806.74,92.23 2546.37,602.75 268.05,185.01 150.54,198.2 385.14,14.19 355.79,-279.07 798.94,-444.75 1278.68,-444.75 1168.04,0 2114.98,976.38 2114.98,2180.73 0,153.46 -15.74,306.2 -46.76,455.73 -76.53,368.86 -110.22,185.2 129,468.99 432.72,513.36 579.57,1244.61 347.38,1884.14 702.5,600.69 1109.05,1489.39 1109.05,2430.9 0,1438.52 -947.09,2698.98 -2296.43,3057.48l0.98 8207.19c0.26,2184.96 -474.23,2606.09 -2391.87,2913.48l-6228.02 998.34c-257.17,41.22 -209.91,-0.8 -90.37,179.03 465.86,700.84 524.28,1711.07 -338.34,2076.19zm-39.08 -1919.55c-459.37,-616.48 -1291.56,-776.31 -1933.63,-381.58 95.41,92.53 183.5,192.7 263.31,299.41 303.24,405.45 487.87,905.12 505.57,1435.05 9.44,282.94 -63.48,270.15 261.7,304.98 268.28,28.73 549.58,-6.06 792.2,-114.46 643.62,-272.43 468.93,-1062.86 110.86,-1543.41zm-2259.83 -647.94c550.89,-402.47 1264.31,-465.02 1866.34,-180.59 335.93,158.7 187.08,189.62 578.73,126.84l6484.44 -1039.44c1652.22,-264.85 2024.09,-539.63 2023.85,-2448.03l-1.72 -14359.42c-0.13,-942.27 -510.3,-910.17 -1262.8,-854.48l-27208.54 2014c-1124.87,83.26 -1660.41,465.89 -1651.24,1768.56l-52.15 13718.78c-0.7,185.06 -36.94,231.83 68.83,376.09 103.35,140.92 54.19,127.78 207.34,40.76 689.56,-391.78 1493.08,-574.74 2294.16,-490.11 705.85,74.56 1349.11,342.54 1875.35,766.54 66.55,53.62 129.9,111.17 193.87,168.22 147.74,131.79 134.96,148.53 419.13,98.38 1410.07,-248.91 2962.04,587.03 3399.57,2027.43 119.74,394.2 -28.03,456.68 351.14,393.46l6711.43 -1119.08c272.15,-45.38 195.79,4.7 331.2,-226.07 492.71,-839.71 1418.77,-1298.35 2361.66,-1171 371.5,50.19 713.69,187.48 1009.42,389.17zm701.6 2042.2c-9.31,-452.93 -165.11,-881.19 -424.33,-1227.8 -317.61,-424.68 -789.89,-726.34 -1337.65,-800.34 -787.19,-106.33 -1560.86,277.15 -1972.18,978.14 -139.42,237.6 -234.34,507.5 -271.37,799 -56.8,447.1 -68.66,479.01 310.26,712.45 908.16,559.5 2588.12,594.28 3484.98,-10 223.35,-150.49 215.9,-178.99 210.31,-451.46zm-22669.7 -190.77c-248.33,-267.92 -554.64,-447.12 -879.97,-542.18 -665.7,-194.51 -1441.95,-43.52 -1942.95,464.46 -250.8,254.28 -428.38,597.37 -483.17,1023.89 -30.57,238.01 -25.94,299.14 104.48,504.9 400.19,631.23 1296.18,959.81 1991.54,1038.16 292.07,32.91 213.07,43.02 256.45,-237.1 107.67,-695.04 447.42,-1310.18 934.79,-1758.33 256.98,-236.31 319.49,-169.41 18.83,-493.79zm-2216.94 -910.13c464.61,-153.61 974.44,-161.23 1443.63,-24.13 439.07,128.3 849.28,383.86 1164.37,774.48 211.03,261.63 86.74,265.19 376.83,136.64 61.77,-27.37 124.65,-52.61 188.54,-75.59 258.37,-92.95 172.5,-39.9 254.98,-320.98 219.4,-747.59 652.78,-1379.61 1211.02,-1851.15 164.4,-138.85 175.34,-88.55 30.3,-275.39 -286.22,-368.72 -651.61,-651.9 -1059.11,-833.87 -947.8,-423.21 -2048.42,-266.9 -2846.75,406.95 -420.44,354.87 -733.8,832.34 -894.54,1371.59 -44.17,148.2 -76.89,301.42 -97.13,458.48 -52.57,408 -62.89,329.06 227.84,232.96zm4129.34 1053.05c-1277.29,0 -2331.35,984.98 -2486.97,2258.45 -32.25,263.91 -38.95,284.4 122.78,495.27 61.75,80.5 131.74,157.77 208.94,231.41 968.1,923.59 2846.67,1194.15 4021.23,569.96 373.59,-198.54 674.64,-411.27 666.73,-790.68 -6.56,-773.98 -275.83,-1484.23 -742.16,-1991.06 -438.28,-476.33 -1053.54,-773.36 -1790.54,-773.36zm0 -408.02c852.2,0 1565.97,346 2076.51,900.87 534.39,580.8 842.92,1390.03 850.36,2268.38 2.46,290.59 -74,242.91 246.31,259.7 873.32,45.8 1732.23,-57.18 2475.75,-582.98 296.37,-209.59 311.46,-233.74 424.63,-582.43 116.52,-359 183.66,-731.35 201.48,-1102.68 35.94,-749.15 -128.5,-1516.54 -515.38,-2155.87 -192.35,-317.87 -437.68,-600.72 -724.07,-831.47 -467.84,-376.95 -1041.61,-615.39 -1672.85,-682.07 -869.44,-91.85 -1743.36,168.05 -2436.89,686.46 -522.38,390.48 -941.58,927.64 -1178.07,1571.3 -135.27,368.16 -89.7,250.8 252.22,250.8zm6119.67 -1168.52c412.06,700.87 588.67,1533.11 549.54,2348.51 -16.09,335.21 -68.47,670.76 -157.2,997.96 -85.9,316.81 -177.5,320.75 164.65,276.1 853.42,-111.41 1766.16,-560.45 2180.56,-1373.82 173.31,-340.22 168.03,-444.63 56.47,-811.91 -352.21,-1159.51 -1558.57,-1862.06 -2704.93,-1778.59 -402.38,29.28 -269.31,35.22 -89.09,341.75zm26385.82 -14450.13c48.79,-124.21 231.97,-47.72 183.18,76.5 -139.77,353.24 -390.01,650.56 -708.7,844.17 -111.7,67.53 -211.39,-107.8 -99.7,-175.31 281.37,-170.94 501.87,-433.55 625.23,-745.36zm-2232.98 -7098.81c-126.06,-30.93 -80.46,-228.56 45.6,-197.64 468.19,115.3 830.74,502.31 926.18,988.78 25.41,131.04 -167.81,170.87 -193.22,39.85 -80.02,-407.87 -386.07,-734.33 -778.56,-830.99zm-13512.71 1533.54c-50.37,-21.56 -74.24,-81.15 -53.33,-133.08 20.91,-51.93 78.7,-76.55 129.07,-54.99 754.2,324.33 1169.03,264.78 1582.87,205.38 395.13,-56.72 789.43,-113.32 1445.83,126.31 398.51,145.49 772.79,230.63 1113.02,247.48 322.76,15.98 614.7,-29.42 867.22,-143.07 49.94,-22.44 108.08,1.11 129.85,52.6 21.77,51.49 -1.07,111.44 -51.01,133.88 -281.16,126.54 -602.65,177.26 -955.33,159.8 -360.45,-17.84 -753.6,-106.82 -1169.44,-258.63 -611.42,-223.22 -981.86,-170.04 -1353.08,-116.75 -440.53,63.23 -882.11,126.62 -1685.66,-218.93zm3537.5 -1627.87c-58.96,118.97 -234.41,26.54 -175.44,-92.44 353.36,-710.52 990.04,-1151.47 1747.31,-1284.09 128.1,-22.01 160.55,178.81 32.46,200.82 -695.01,121.73 -1279.77,523.11 -1604.33,1175.72zm-6180.76 21072.13c-128.11,20.44 -158.23,-180.39 -30.15,-200.82l14177.38 -2301.01c907.01,-147.2 1075.94,-256.1 1077.45,-1257.35l57.25 -12114.76c0.51,-133.65 197.59,-132.85 197.08,0.8l-57.25 12114.36c-1.75,1131.22 -253.69,1296.98 -1265.51,1461.2l-14156.26 2297.58zm-16114.87 -17299.72c-121.49,-47.17 -51.93,-237.63 69.56,-190.46l2002.35 784.47c121.49,47.17 51.93,237.63 -69.56,190.46l-2002.35 -784.47zm20807.63 551.25c129.63,-11 145.83,192.21 16.23,203.21l-3884.01 333.06c-129.63,11 -145.84,-192.21 -16.23,-203.21l3884.01 -333.06zm-5192.76 445.28c129.63,-11 145.84,192.21 16.23,203.21l-9994.76 857.02c-1021.31,84.98 -1398.82,684.76 -1391.7,1696.59l-57.76 11733.35c-0.51,133.65 -197.59,132.85 -197.08,-0.8l57.76 -11732.2c-7.75,-1119.12 447.4,-1806.31 1572.94,-1900.11l9994.37 -857.05z"/></g></svg>